<?xml version="1.0" standalone="no"?><!DOCTYPE svg PUBLIC "-//W3C//DTD SVG 1.1//EN" "http://www.w3.org/Graphics/SVG/1.1/DTD/svg11.dtd"><svg  class="icon" viewBox="0 0 1024 1024" version="1.1" xmlns="http://www.w3.org/2000/svg"  xmlns:xlink="http://www.w3.org/1999/xlink" width="200" height="200"><defs><style type="text/css"></style></defs><path d="M611.107 1023.904c-33.266 0-64.564-12.951-88.077-36.485L36.55 500.939C5.982 470.382-6.449 426.985 3.261 384.86l54.06-234.226c10.616-46.129 47.267-82.78 93.384-93.352L384.921 3.223C426.526-6.32 470.83 6.32 500.999 36.49l486.48 486.48c23.534 23.524 36.496 54.81 36.496 88.088s-12.96 64.565-36.496 88.088L699.206 987.42c-23.534 23.534-54.81 36.485-88.099 36.485zM412.967 45.326c-5.994 0-12.01 0.686-17.872 2.036l-234.237 54.07c-29.33 6.723-52.643 30.025-59.389 59.376L47.411 395.057c-6.193 26.797 1.725 54.412 21.168 73.854l486.48 486.48c29.993 29.981 82.193 29.937 112.12 0l288.273-288.284c14.974-14.974 23.225-34.882 23.225-56.049 0-21.178-8.25-41.086-23.225-56.06l-486.48-486.48c-14.953-14.952-34.859-23.192-56.005-23.192zM304.807 403.85c-26.455 0-51.338-10.308-70.051-29.031-38.641-38.631-38.641-101.503 0-140.134 18.712-18.712 43.596-29.009 70.072-29.009 26.454 0 51.337 10.297 70.05 29.009 18.735 18.723 29.041 43.607 29.041 70.083 0 26.455-10.329 51.337-29.041 70.05-18.712 18.725-43.595 29.032-70.072 29.032z m0.022-152.874c-14.378 0-27.892 5.585-38.045 15.737-20.968 20.98-20.968 55.098 0 76.078 20.35 20.327 55.717 20.306 76.067 0 10.174-10.163 15.77-23.667 15.77-38.033s-5.597-27.87-15.77-38.045c-10.153-10.152-23.667-15.737-38.022-15.737z" ></path></svg>